<svg xmlns="http://www.w3.org/2000/svg" width="30" height="30.037" viewBox="0 0 30 30.037"><path d="M20.625,0c-1.913,0-3.562,1.313-4.575,3.3a12.365,12.365,0,0,1,2.7,7.987,13.228,13.228,0,0,1-.338,3.038,4.41,4.41,0,0,0,2.213.712c3.112,0,5.625-3.375,5.625-7.5s-2.513-7.5-5.625-7.5ZM9.375,3.75c-3.112,0-5.625,3.375-5.625,7.5s2.513,7.5,5.625,7.5S15,15.375,15,11.25,12.487,3.75,9.375,3.75ZM27.188,15.6a8.544,8.544,0,0,1-6.337,3.15,8.663,8.663,0,0,1,1.65,5.025V26.25H30V20.025a5.021,5.021,0,0,0-2.812-4.463ZM2.813,19.35A5.021,5.021,0,0,0,0,23.813v6.225H18.75V23.813a5.021,5.021,0,0,0-2.812-4.462A8.506,8.506,0,0,1,9.375,22.5a8.628,8.628,0,0,1-6.562-3.15Z"/></svg>