<svg xmlns="http://www.w3.org/2000/svg" width="36" height="36" viewBox="0 0 36 36">
  <path id="Icon_awesome-user-check" data-name="Icon awesome-user-check" d="M12.6,18c3.977,0,7.2-4.029,7.2-9s-3.223-9-7.2-9S5.4,4.029,5.4,9,8.623,18,12.6,18Zm5.04,2.25H16.7a8.036,8.036,0,0,1-8.2,0H7.56C3.386,20.25,0,24.483,0,29.7v2.925C0,34.488,1.209,36,2.7,36H22.5c1.491,0,2.7-1.512,2.7-3.375V29.7C25.2,24.483,21.814,20.25,17.64,20.25Zm18.169-9.028L34.245,9.246a.578.578,0,0,0-.945-.007L27.4,16.552l-2.559-3.22a.578.578,0,0,0-.945-.007L22.32,15.286a.987.987,0,0,0-.006,1.181l4.6,5.787a.578.578,0,0,0,.945.007L35.8,12.4a1,1,0,0,0,.006-1.181Z"/>
</svg>
